<?xml version="1.0" encoding="UTF-8" standalone="no"?>
<!-- Created with Inkscape (http://www.inkscape.org/) -->

<svg
   xmlns:dc="http://purl.org/dc/elements/1.1/"
   xmlns:cc="http://creativecommons.org/ns#"
   xmlns:rdf="http://www.w3.org/1999/02/22-rdf-syntax-ns#"
   xmlns:svg="http://www.w3.org/2000/svg"
   xmlns="http://www.w3.org/2000/svg"
   xmlns:sodipodi="http://sodipodi.sourceforge.net/DTD/sodipodi-0.dtd"
   xmlns:inkscape="http://www.inkscape.org/namespaces/inkscape"
   width="640"
   height="520"
   id="svg2"
   version="1.1"
   inkscape:version="0.48+devel r10550"
   sodipodi:docname="logo.svg">
  <defs
     id="defs4" />
  <sodipodi:namedview
     id="base"
     pagecolor="#ffffff"
     bordercolor="#666666"
     borderopacity="1.0"
     inkscape:pageopacity="0.0"
     inkscape:pageshadow="2"
     inkscape:zoom="1"
     inkscape:cx="647.73544"
     inkscape:cy="222.57432"
     inkscape:document-units="px"
     inkscape:current-layer="layer1"
     showgrid="false"
     fit-margin-top="0"
     fit-margin-left="0"
     fit-margin-right="0"
     fit-margin-bottom="0"
     inkscape:window-width="1280"
     inkscape:window-height="658"
     inkscape:window-x="-8"
     inkscape:window-y="-8"
     inkscape:window-maximized="1" />
  <metadata
     id="metadata7">
    <rdf:RDF>
      <cc:Work
         rdf:about="">
        <dc:format>image/svg+xml</dc:format>
        <dc:type
           rdf:resource="http://purl.org/dc/dcmitype/StillImage" />
        <dc:title />
      </cc:Work>
    </rdf:RDF>
  </metadata>
  <g
     inkscape:label="Capa 1"
     inkscape:groupmode="layer"
     id="layer1"
     transform="translate(0,-532.36218)">
    <path
       style="fill:#ffffff"
       d="M 254,653.36218 589.91049,652.44821 623,683.36218 l 0,335.00002 -335,0 -32.0539,-36.00285 3.08083,-285.00324 C 251.38733,682.94495 263.69076,666.42364 254,653.36218 z"
       id="rect59"
       inkscape:connector-curvature="0"
       sodipodi:nodetypes="cccccccc" />
    <g
       id="g174"
       transform="matrix(0.59796151,0,0,0.59796151,-505.69325,322.99158)">
      <path
         style="fill:#d0ecf6"
         d="m 1328.607,1159.7804 c -0.3339,-0.87 -0.607,-42.2332 -0.607,-91.9182 0,-49.6851 0.2731,-91.04825 0.607,-91.91823 0.5475,-1.42674 9.7508,-1.58179 93.893,-1.58179 84.1422,0 93.3455,0.15505 93.893,1.58179 0.3339,0.86998 0.607,42.23313 0.607,91.91823 0,49.685 -0.2731,91.0482 -0.607,91.9182 -0.5475,1.4267 -9.7508,1.5818 -93.893,1.5818 -84.1422,0 -93.3455,-0.1551 -93.893,-1.5818 z m 158.1503,-90.6682 -0.2573,-64.25 -64,0 -64,0 -0.2592,63 c -0.1426,34.65 -0.044,63.5625 0.2186,64.25 0.3754,0.982 14.2071,1.25 64.5166,1.25 l 64.0387,0 -0.2574,-64.25 z m -105.1698,40.3916 c -1.0099,-1.6341 -0.7491,-80.38 0.2696,-81.3987 1.2778,-1.2778 80.0298,-1.256 81.3083,0.023 1.3774,1.3774 1.0808,79.2331 -0.3083,80.9068 -0.8823,1.063 -9.0411,1.3278 -40.9205,1.3278 -21.9002,0 -40.0573,-0.3863 -40.3491,-0.8584 z m 159.0195,50.2766 c -0.3339,-0.87 -0.607,-6.9561 -0.607,-13.5248 l 0,-11.9429 2.6508,-1.0079 c 1.5352,-0.5836 12.372,-0.9634 25.75,-0.9023 l 23.0992,0.1055 0.5492,-4.3229 c 0.3021,-2.3776 0.5271,-7.2453 0.5,-10.8172 l -0.049,-6.4943 -11.9603,-0.3078 c -6.5782,-0.1693 -12.5407,-0.7895 -13.25,-1.3782 -0.9909,-0.8223 -1.2897,-6.9497 -1.2897,-26.4479 l 0,-25.3775 -11.8776,0 c -8.3923,0 -12.1873,-0.3733 -12.9333,-1.2722 -1.4067,-1.6949 -1.8314,-26.4855 -0.4769,-27.84 0.6365,-0.6365 10.3593,-1.0955 25.5746,-1.2074 13.5012,-0.099 24.9225,-0.5544 25.3805,-1.0115 0.458,-0.4571 1.0577,-6.3071 1.3327,-13 l 0.5,-12.1689 12.75,-0.2799 12.75,-0.2799 0,-10.98788 0,-10.9879 -24.25,0.26778 -24.25,0.26778 -0.5,12.17107 c -0.275,6.69409 -0.7416,12.41075 -1.037,12.70365 -0.7931,0.7866 -26.639,0.9436 -27.8917,0.1693 -0.7142,-0.4414 -1.0764,-8.89153 -1.0866,-25.35304 -0.01,-13.58004 -0.37,-25.24938 -0.8034,-25.93188 -0.6073,-0.95628 -12.7025,-1.30032 -52.7347,-1.5 l -51.9466,-0.2591 -0.5,-26 -0.5,-26 -24.9107,-0.20469 c -13.7009,-0.11258 -25.5134,-0.43596 -26.25,-0.71862 -1.0082,-0.38688 -1.3431,-3.30268 -1.3546,-11.79531 -0.01,-6.20476 -0.3827,-11.86046 -0.8318,-12.56822 -0.6004,-0.94633 -3.5733,-1.21094 -11.2347,-1 l -10.4182,0.28684 -0.2838,11.98376 c -0.156,6.59106 -0.622,12.32205 -1.0355,12.73552 -1.0361,1.03612 -27.228,1.13849 -28.2299,0.11033 -1.1684,-1.19897 -1.5355,-27.14886 -0.3999,-28.26018 0.522,-0.51078 6.4607,-1.07286 13.197,-1.24906 l 12.2479,-0.32037 0,-11.04065 0,-11.04065 -12.25,-0.28204 c -6.7375,-0.15513 -12.6007,-0.62253 -13.0293,-1.03868 -0.4286,-0.41615 -0.6536,-7.02094 -0.5,-14.67731 l 0.2795,-13.92067 14.5,0 14.5,0 0.2799,12.75 0.2798,12.75 12.435,0 c 11.2706,0 12.5319,0.18111 13.4701,1.93426 0.5694,1.06384 1.0352,6.8657 1.0352,12.89301 0,9.07046 0.2726,11.06334 1.5818,11.56574 2.0651,0.79248 69.7713,0.79248 71.8364,0 1.3084,-0.50209 1.5818,-2.48949 1.5818,-11.5 l 0,-10.89301 -12.481,0 c -14.8472,0 -13.734,1.42204 -13.308,-17 l 0.289,-12.5 14.5,0 14.5,0 0.2801,12.78247 0.2801,12.78247 11.2199,-0.28247 11.2199,-0.28247 0.5,-12.5 0.5,-12.5 26,-0.5 26,-0.5 0.2573,-64.90639 c 0.1821,-45.91934 0.5836,-65.29944 1.3725,-66.25 0.8191,-0.98702 4.2721,-1.34361 13.0104,-1.34361 l 11.8954,0 -0.2678,-24.25 -0.2678,-24.25 -11.778,-0.078 c -6.4779,-0.0429 -12.1881,-0.49289 -12.6894,-1 -0.5013,-0.50711 -1.0081,-6.92756 -1.1263,-14.26767 -0.1697,-10.54541 0.08,-13.5322 1.1895,-14.23469 2.2758,-1.44084 106.2537,-1.1702 107.7042,0.28035 1.5135,1.51346 1.6519,24.08703 0.1648,26.86574 -0.9791,1.82947 -2.3292,1.93427 -24.9182,1.93427 -13.1357,0 -24.5948,0.27314 -25.4648,0.60699 -1.3084,0.50209 -1.5818,2.48949 -1.5818,11.5 l 0,10.89301 12.441,0 c 6.8425,0 12.6675,0.36658 12.9444,0.81463 1.0986,1.77743 0.9647,27.23529 -0.149,28.34901 -0.7666,0.76661 -9.1667,1.15755 -26.4301,1.23006 l -25.3063,0.1063 -0.2592,50.75 -0.2591,50.75 10.9901,0 c 10.9483,0 10.9925,-0.01 11.6306,-2.5518 0.3522,-1.40349 0.4249,-12.49259 0.1615,-24.64245 -0.5969,-27.52975 -1.5814,-25.80575 14.7361,-25.80575 l 11.5,0 0,-11.8 c 0,-7.84444 0.4023,-12.20226 1.2,-13 1.8115,-1.81147 53.1582,-1.69872 54.9786,0.12072 1.0602,1.05965 1.2675,9.15957 1.0489,40.97687 -0.2501,36.38734 -0.4149,39.7313 -2,40.56789 -0.9699,0.5119 -7.4287,0.63168 -14.7275,0.27313 l -13,-0.63861 -0.5592,-26 c -0.3076,-14.3 -0.6451,-26.1125 -0.75,-26.25 -0.1049,-0.1375 -4.7019,-0.25 -10.2155,-0.25 -9.8408,0 -10.0427,0.0471 -11,2.5651 -0.5364,1.4108 -0.9753,13.12493 -0.9753,26.03138 0,19.28977 -0.2514,23.56275 -1.4124,24.00829 -0.7769,0.2981 -6.5144,0.62147 -12.75,0.71861 l -11.3376,0.17662 -0.2811,12.28656 c -0.2772,12.11851 -0.3157,12.29975 -2.8151,13.25 -1.3937,0.52989 -7.4547,0.96344 -13.4689,0.96344 l -10.9349,0 0,11 0,11 12.4648,0 c 11.3002,0 12.5616,0.18073 13.5,1.93426 0.5694,1.06384 1.0352,6.87809 1.0352,12.92054 l 0,10.98629 2.7835,0.61136 c 1.531,0.33626 6.8443,0.51687 11.8074,0.40137 4.9631,-0.1155 9.5605,0.1217 10.2164,0.52711 0.8205,0.50704 1.1927,4.63037 1.1927,13.21084 l 0,12.47373 11.25,-0.28275 11.25,-0.28275 0.5,-39 0.5,-39 79.8903,-0.25602 c 58.1911,-0.18648 80.2596,0.0505 81.25,0.87245 1.0066,0.83542 1.3597,4.21278 1.3597,13.00601 l 0,11.87756 11.0657,0 c 6.0862,0 11.9362,0.46583 13,1.03518 1.7379,0.93005 1.9343,2.18714 1.9343,12.37756 0,8.63033 0.3429,11.62695 1.434,12.53253 0.9567,0.79394 4.9959,1.10836 12.1333,0.94445 9.1199,-0.20943 10.8837,0.007 11.9488,1.4632 1.421,1.94338 1.0526,26.47836 -0.4197,27.95068 -0.4662,0.46619 -18.1161,0.92609 -39.222,1.02201 l -38.3744,0.17439 -0.5425,26 c -0.2984,14.3 -0.6359,26.12486 -0.75,26.27746 -0.1141,0.1526 -6.62,0.1526 -14.4575,0 l -14.25,-0.27746 -0.6107,-12.5 c -0.3358,-6.875 -0.6733,-12.6125 -0.75,-12.75 -0.077,-0.1375 -5.0759,-0.25 -11.1094,-0.25 l -10.9702,0 -0.2798,12.75 -0.2799,12.75 -26,0.5 -26,0.5 -0.2704,12 c -0.2216,9.83439 -0.5719,12.22558 -1.9411,13.25 -1.1065,0.82782 -5.4903,1.25 -12.9796,1.25 l -11.3089,0 0,11.30887 c 0,7.48937 -0.4222,11.87315 -1.25,12.97965 -1.0244,1.3692 -3.4156,1.7195 -13.25,1.9411 l -12,0.2704 -0.2678,24.919 c -0.1756,16.3356 -0.6484,25.3775 -1.3725,26.25 -0.8061,0.9713 -4.3147,1.331 -12.9821,1.331 l -11.8776,0 0,24.5 0,24.5 23.893,0 c 20.8648,0 23.97,-0.2005 24.5,-1.5818 0.3339,-0.87 0.607,-18.4042 0.607,-38.9648 0,-42.3912 -0.6447,-39.4392 8.5,-38.9218 2.75,0.1557 7.8125,0.037 11.25,-0.2624 l 6.25,-0.5454 0,-11.6619 c 0,-7.7371 0.4039,-12.0658 1.2,-12.8619 0.797,-0.797 5.1406,-1.2 12.9326,-1.2 13.8816,0 13.0669,0.8924 12.7071,-13.91822 -0.1441,-5.93239 0.1796,-10.5011 0.7871,-11.10859 0.6385,-0.6385 6.3387,-0.92538 14.9525,-0.75254 l 13.9207,0.27933 0.5,25.50002 0.5,25.5 5.5,0.6401 c 4.2738,0.4974 15.0513,0.1461 16.1898,-0.5278 0.1043,-0.062 0.4418,-11.5873 0.75,-25.6123 l 0.5602,-25.50002 14.2241,-0.2773 c 14.0775,-0.27444 14.2298,-0.25383 14.7759,2 0.3035,1.25252 0.4277,31.75232 0.2759,67.77732 l -0.2759,65.5 -26.8776,0.2666 c -18.9927,0.1883 -27.2801,-0.068 -28.25,-0.8725 -1.0222,-0.8484 -1.3724,-4.1694 -1.3724,-13.0166 l 0,-11.8775 -11,0 -11,0 0,11.3089 c 0,7.4893 -0.4222,11.8731 -1.25,12.9796 -1.0244,1.3692 -3.4156,1.7195 -13.25,1.9411 l -12,0.2704 -0.5,12.1711 c -0.275,6.694 -0.8749,12.544 -1.3332,13 -0.4583,0.4559 -6.0269,0.9225 -12.3747,1.037 -6.3479,0.1144 -11.7524,0.4188 -12.0101,0.6765 -0.2576,0.2577 -0.4227,4.9548 -0.3668,10.4381 0.056,5.4833 -0.1752,10.6914 -0.5137,11.5735 -0.9161,2.3873 -28.8789,2.4079 -29.7945,0.022 -0.3339,-0.87 -0.607,-6.27 -0.607,-12 l 0,-10.4182 -11,0 -11,0 0,10.4182 c 0,5.73 -0.2731,11.13 -0.607,12 -0.533,1.3889 -3.9342,1.5818 -27.893,1.5818 -23.9588,0 -27.36,-0.1929 -27.893,-1.5818 z m 210.226,-80.9642 c 0.1831,-0.1576 0.4081,-4.9368 0.5,-10.6203 l 0.167,-10.3337 -11.25,-0.2828 -11.25,-0.2827 0,10.9594 c 0,9.6238 0.2133,11.0065 1.75,11.3455 1.8306,0.4038 19.5043,-0.2873 20.083,-0.7854 z M 1566,935.56218 c 0,-7.84444 0.4023,-12.20226 1.2,-13 0.8659,-0.86591 7.8957,-1.20426 25.25,-1.21531 13.2275,-0.008 24.6291,-0.38273 25.3368,-0.83179 0.9464,-0.60042 1.211,-3.57327 1,-11.23469 l -0.2868,-10.41821 -24.919,-0.26784 c -16.3356,-0.17558 -25.3775,-0.64832 -26.25,-1.37244 -1.0441,-0.8665 -1.331,-6.58236 -1.331,-26.516 l 0,-25.41138 -10.75,0.28383 -10.75,0.28383 -0.5,12.17107 c -0.275,6.69409 -0.873,12.54409 -1.3289,13 -0.4559,0.45591 -6.3059,1.05393 -13,1.32893 l -12.1711,0.5 -0.2838,10.75 -0.2839,10.75 11.7839,0.0153 c 6.4811,0.008 12.4588,0.44147 13.2838,0.96233 1.2562,0.79308 1.5485,5.0979 1.7981,26.48468 l 0.2981,25.53769 10.9519,0 10.9519,0 0,-11.8 z m 106,0.8 0,-11 -11,0 -11,0 0,11 0,11 11,0 11,0 0,-11 z m -159.2197,-26.5 0.2804,-11 -11.0304,-0.31811 -11.0303,-0.31811 0,10.90144 c 0,5.9958 0.3148,11.2162 0.6995,11.60089 0.3846,0.3847 5.2221,0.5722 10.75,0.41667 l 10.0505,-0.28278 0.2803,-11 z m 212.0028,-0.28413 0.283,-11.28413 -12.0236,0.24358 c -6.707,0.13588 -12.4432,-0.18066 -12.9725,-0.71587 -1.2877,-1.30206 -1.6465,-27.28291 -0.3941,-28.53535 0.5776,-0.57763 6.7214,-0.86761 14.9034,-0.70343 l 13.9207,0.27933 0.2801,12.78247 0.2801,12.78247 11.2199,-0.28247 11.2199,-0.28247 0.01,-11.5 c 0,-6.325 0.3678,-12.0625 0.809,-12.75 0.6071,-0.946 6.9635,-1.25 26.1362,-1.25 19.407,0 25.4189,-0.29244 25.6968,-1.25 0.1995,-0.6875 0.2177,-5.86582 0.04,-11.50738 l -0.3224,-10.25738 -63.6834,0.25738 -63.6836,0.25738 -0.2627,36.49563 c -0.1445,20.07259 -0.043,37.06826 0.2255,37.76815 0.3804,0.99124 5.7437,1.21326 24.2628,1.00438 l 23.7744,-0.26816 0.2831,-11.28413 z m -214.8756,-41.84737 3.1575,-0.6315 -0.2825,-10.6185 -0.2825,-10.6185 -10.75,-0.28383 -10.75,-0.28383 0,10.86716 c 0,5.97694 0.3,11.16717 0.6667,11.53383 0.846,0.84609 14.0589,0.87156 18.2408,0.0352 z m 189.6995,292.04972 c -0.3339,-0.87 -0.607,-6.9591 -0.607,-13.5314 0,-10.4401 0.2211,-12.0404 1.75,-12.6682 0.9625,-0.3952 7.2789,-0.7186 14.0365,-0.7186 9.8332,0 12.4758,0.2995 13.2347,1.5 1.0385,1.6428 1.349,22.8716 0.3718,25.4182 -0.5129,1.3365 -2.7444,1.5818 -14.393,1.5818 -11.6486,0 -13.8801,-0.2453 -14.393,-1.5818 z m 53,0 c -0.3339,-0.87 -0.607,-6.9292 -0.607,-13.4648 0,-10.725 0.1885,-11.9839 1.9343,-12.9182 2.4512,-1.3119 22.0864,-1.3581 25.5006,-0.06 2.5558,0.9717 2.5651,1.0183 2.5651,12.9182 0,6.5686 -0.2731,12.6547 -0.607,13.5247 -0.5129,1.3365 -2.7444,1.5818 -14.393,1.5818 -11.6486,0 -13.8801,-0.2453 -14.393,-1.5818 z m 105.393,-11.943 0,-13.5247 2.5651,-0.9753 c 2.797,-1.0634 21.2973,-1.349 23.8531,-0.3682 1.3374,0.5132 1.5818,2.7539 1.5818,14.5 l 0,13.893 -14,0 -14,0 0,-13.5248 z m -581.1589,-37.5443 c -1.376,-0.77 -128.3324,-127.31399 -135.8411,-135.39981 l -2.5,-2.69213 -0.5,-207.66949 -0.5,-207.66949 -68.591,-0.25684 -68.591,-0.25685 -67.61745,-67.74315 c -65.27414,-65.39554 -70.59942,-70.8583 -70.66875,-72.49316 -0.0175,-0.4125 187.7741,-0.75 417.3146,-0.75 364.8464,0 417.7116,0.18457 420.25,1.46724 1.597,0.80698 32.9867,31.56636 69.755,68.35419 49.2522,49.27839 66.7553,67.38604 66.4863,68.78276 -0.3572,1.85492 -6.3447,1.90124 -277.6014,2.14759 L 1281,556.36574 l 0,276.37577 c 0,221.11739 -0.252,276.58499 -1.2606,277.42199 -0.7937,0.6587 -1.8671,0.7067 -2.8983,0.1296 z M 1806,1109.3994 c -1.2715,-0.8164 -1.5,-5.0103 -1.5,-27.5353 0,-22.531 0.2281,-26.7166 1.5,-27.5217 0.825,-0.5223 6.7875,-0.9565 13.25,-0.9649 l 11.75,-0.015 0,-12.441 c 0,-8.1597 0.3884,-12.681 1.1285,-13.1384 0.6207,-0.3836 7.027,-0.7335 14.2362,-0.7775 12.95,-0.079 13.1236,-0.05 14.4281,2.3885 0.9206,1.721 1.1608,4.8219 0.7934,10.2411 -0.2899,4.275 -0.2592,9.1125 0.068,10.75 l 0.5954,2.9773 10.2932,0 c 5.6613,0 11.005,0.2731 11.875,0.607 1.341,0.5146 1.5818,2.7979 1.5818,15 0,7.9161 -0.1125,14.4857 -0.25,14.5989 -0.1375,0.1133 -11.5,0.4508 -25.25,0.75 l -25,0.5441 -0.5,12.5 -0.5,12.5 -13.5,0.2501 c -7.428,0.1376 -14.1747,-0.183 -15,-0.7129 z m 38,-104.9899 -12.5,-0.5473 -0.2799,-12.75002 -0.2798,-12.75 -11.8477,0 c -9.8515,0 -12.079,-0.28131 -13.2202,-1.6696 -1.0338,-1.25765 -1.3121,-4.77365 -1.1281,-14.25 0.2037,-10.48734 0.5267,-12.78837 1.9412,-13.8304 2.4302,-1.79032 25.6654,-1.73705 27.1587,0.0623 0.6115,0.73678 1.2134,6.54746 1.3724,13.25 l 0.2834,11.9377 9.5,0.25394 c 5.225,0.13967 10.175,-0.18154 11,-0.7138 1.2599,-0.81282 1.521,-4.88031 1.6314,-25.40759 0.072,-13.44191 0.4364,-24.9332 0.8091,-25.5362 0.7224,-1.16894 23.1078,-1.59064 25.9777,-0.48936 1.3901,0.53342 1.5818,3.98771 1.5818,28.5 l 0,27.89301 -12,0 -12,0 -0.1073,3.25 c -0.059,1.7875 -0.1715,7.22368 -0.25,12.0804 -0.121,7.48722 -0.438,9.04632 -2.0838,10.25002 -1.0676,0.7808 -2.1926,1.3284 -2.5,1.2169 -0.3074,-0.1115 -6.1839,-0.449 -13.0589,-0.75 z m -514.9042,-53.96697 c -1.1096,-0.70249 -1.3592,-3.68928 -1.1895,-14.23469 0.1182,-7.34011 0.5886,-13.72423 1.0455,-14.18692 1.0588,-1.07226 27.0847,-1.02219 28.1611,0.0542 0.4429,0.4429 0.8691,6.82153 0.9472,14.17474 0.1089,10.26038 -0.1723,13.56856 -1.2091,14.22559 -1.7904,1.13459 -25.9564,1.10594 -27.7552,-0.0329 z m 528.9149,-107.06042 c -1.3485,-2.51956 -1.1755,-25.09304 0.2051,-26.76993 1.0795,-1.31117 23.0558,-1.85047 26.2024,-0.64301 1.3366,0.51288 1.5818,2.74445 1.5818,14.39301 0,11.64856 -0.2452,13.88013 -1.5818,14.39301 -0.87,0.33385 -6.9291,0.60699 -13.4648,0.60699 -10.8197,0 -11.9779,-0.17718 -12.9427,-1.98007 z M 1329.429,792.06249 c -1.2227,-0.68426 -1.429,-14.27351 -1.429,-94.14301 0,-84.19441 0.155,-93.40282 1.5818,-93.95031 2.0672,-0.79328 183.7692,-0.79328 185.8364,0 1.4268,0.5475 1.5818,9.76853 1.5818,94.09362 0,88.19668 -0.099,93.51211 -1.75,93.93693 -3.1798,0.8182 -184.3618,0.8794 -185.821,0.0628 z M 1487,697.86218 l 0,-64.5 -64.5,0 -64.5,0 0,63.83333 c 0,35.10834 0.3,64.13334 0.6667,64.5 0.3666,0.36667 29.3916,0.66667 64.5,0.66667 l 63.8333,0 0,-64.5 z m -105.4068,40.65083 c -0.9201,-1.48878 -0.7684,-80.37559 0.1563,-81.30034 0.4804,-0.48043 19.0506,-0.75583 41.2671,-0.612 l 40.3936,0.26151 0.5449,2.2992 c 0.2997,1.26457 0.3199,19.71457 0.045,41 l -0.5,38.7008 -40.6841,0.26116 c -22.3762,0.14364 -40.9264,-0.13101 -41.2227,-0.61033 z m 317.9308,52.88803 c -0.7581,-1.22664 -0.7305,-185.89563 0.028,-187.12286 0.6254,-1.01194 182.2434,-1.31552 184.8663,-0.30901 1.4268,0.54749 1.5818,9.75085 1.5818,93.89301 0,84.14216 -0.155,93.34552 -1.5818,93.89301 -2.7295,1.04742 -184.2428,0.69975 -184.8942,-0.35415 z m 157.976,-93.53886 0,-64 -64,0 -64,0 -0.2573,64.25735 -0.2574,64.25735 64.2574,-0.25735 64.2573,-0.25735 0,-64 z m -103.5639,41.28222 c -1.8586,-0.68903 -1.9411,-2.06069 -2.0611,-34.25 -0.069,-18.44272 -0.2086,-35.89472 -0.3107,-38.78222 -0.1021,-2.8875 0.1699,-6.26756 0.6045,-7.51123 l 0.7902,-2.26124 40.7705,0.26124 40.7705,0.26123 0,41 0,41 -39.3139,0.5 c -21.6226,0.275 -40.1851,0.177 -41.25,-0.21778 z m -106.6177,-53.29059 c -1.0813,-0.79128 -1.3177,-4.02053 -1.0982,-15 l 0.2798,-13.99163 13.9229,-0.27934 c 10.4675,-0.21002 14.1243,0.0382 14.7346,1 1.0783,1.69916 1.0479,25.90704 -0.035,27.61482 -1.0464,1.65084 -25.6517,2.2315 -27.8044,0.65615 z"
         id="path184"
         inkscape:connector-curvature="0" />
      <path
         style="fill:#9bd0ee"
         d="m 1329.4942,1159.1122 c -0.2992,-1.2375 -0.4203,-42.975 -0.2691,-92.75 l 0.2749,-90.50002 93,0 93,0 0.2552,92.75002 0.2552,92.75 -92.9862,0 -92.9861,0 -0.5439,-2.25 z m 158.0058,-90.25 0,-65 -65,0 -65,0 -0.2591,64 c -0.1426,35.2 -0.043,64.5658 0.2214,65.2573 0.3805,0.9955 13.9673,1.2037 65.2591,1 l 64.7786,-0.2573 0,-65 z m -105.0434,39.2476 c -0.2643,-0.6888 -0.3627,-18.8013 -0.2186,-40.25 l 0.262,-38.9976 40,0 40,0 0.2618,39.4337 c 0.205,30.8831 -0.012,39.6074 -1,40.2347 -0.694,0.4405 -18.7134,0.8079 -40.0432,0.8163 -30.1535,0.012 -38.8883,-0.2633 -39.262,-1.2371 z m 158.7644,40.0024 0.279,-13.25 26,-0.5 26,-0.5 0,-12 0,-12 -11.9377,-0.2834 c -6.7026,-0.1591 -12.5132,-0.7609 -13.25,-1.3724 -1.02,-0.8465 -1.3123,-6.7423 -1.3123,-26.4667 l 0,-25.3775 -11.75,-0.015 c -6.4625,-0.01 -12.3265,-0.3812 -13.0312,-0.8283 -0.9583,-0.6081 -1.2103,-4.0687 -1,-13.7347 l 0.2812,-12.9217 24.919,-0.2679 c 16.3356,-0.1755 25.3775,-0.6483 26.25,-1.3724 0.97,-0.805 1.331,-4.2968 1.331,-12.8752 0,-9.8107 0.2634,-11.8716 1.5818,-12.3775 0.87,-0.3339 6.72,-0.607 13,-0.607 l 11.4182,0 0,-11.89303 c 0,-8.65735 -0.3401,-11.99014 -1.25,-12.25 -0.6875,-0.19635 -12.1492,-0.22897 -25.4704,-0.0725 l -24.2204,0.2845 -0.2796,12.7155 -0.2796,12.71553 -13.5,0 -13.5,0 -0.5,-26.00002 -0.5,-26 -52.5,-0.5 -52.5,-0.5 -0.5,-26 -0.5,-26 -26,-0.5 -26,-0.5 -0.5,-12.5 -0.5,-12.5 -12,0 -12,0 -0.5,12.5 -0.5,12.5 -13.5,0 -13.5,0 0,-13.5 0,-13.5 12.461,-0.28247 c 6.8536,-0.15536 12.7036,-0.67174 13,-1.14751 0.2965,-0.47576 0.3993,-6.08615 0.2285,-12.46752 l -0.3106,-11.6025 -12.4204,0 c -14.7308,0 -13.6844,1.26374 -13.2487,-16 l 0.2902,-11.5 13.5,0 13.5,0 0.2799,12.75 0.2798,12.75 12.4112,0 c 8.8307,0 12.6445,0.3606 13.2201,1.25 0.4449,0.6875 1.034,6.65 1.309,13.25 l 0.5,12 38,0 38,0 0.2805,-12.2199 0.2806,-12.21989 -12.7806,-0.28011 -12.7805,-0.2801 0,-13.5 0,-13.5 13.5,0 13.5,0 0.2801,12.78054 0.2801,12.78053 12.2199,-0.28053 12.2199,-0.28054 0.5,-12.5 0.5,-12.5 26,-0.5 26,-0.5 0.2573,-64.90639 c 0.1821,-45.91934 0.5836,-65.29944 1.3725,-66.25 0.8191,-0.98701 4.272,-1.34361 13.0098,-1.34361 l 11.8947,0 -0.2671,-25.25 -0.2672,-25.25 -12.5,-0.5 -12.5,-0.5 -0.2812,-12.92173 c -0.2103,-9.66601 0.042,-13.12655 1,-13.73468 1.6965,-1.07647 104.5136,-1.08561 105.1788,-0.009 1.0073,1.62986 1.5021,22.2993 0.5912,24.69521 l -0.9262,2.43608 -25.2813,0.26723 -25.2813,0.26689 -0.2805,12.2199 -0.2806,12.21989 12.7806,0.28011 12.7805,0.2801 0,13.5 0,13.5 -26,0.5 -26,0.5 -0.259,51.78085 -0.259,51.78085 12.259,-0.28085 12.259,-0.28085 0.2586,-25 c 0.2284,-22.07655 0.4554,-25.14617 1.9412,-26.25 1.1133,-0.82713 5.5082,-1.25 12.9913,-1.25 l 11.3089,0 0,-11.8 c 0,-7.84444 0.4023,-12.20226 1.2,-13 1.3875,-1.3875 50.4151,-1.73112 52.5618,-0.36839 0.9882,0.6273 1.205,9.35161 1,40.23468 l -0.2618,39.43371 -13.5,0 -13.5,0 -0.5425,-26 c -0.2984,-14.3 -0.6359,-26.12678 -0.75,-26.28174 -0.1141,-0.15495 -5.495,-0.15495 -11.9575,0 l -11.75,0.28174 -0.5,26 -0.5,26 -12.5,0.5 -12.5,0.5 -0.5,12.17107 c -0.275,6.69409 -0.8737,12.54409 -1.3305,13 -0.4567,0.45591 -6.4192,0.97813 -13.25,1.16049 l -12.4195,0.33155 0,11.91845 0,11.91844 12.441,0 c 8.8546,0 12.6742,0.36034 13.25,1.25 0.4449,0.6875 1.034,6.65 1.309,13.25 l 0.5,12 12.5,0.5 12.5,0.5 0.2801,12.78054 0.2801,12.78053 12.2199,-0.28053 12.2199,-0.28054 0.5,-39 0.5,-39 79.5,0 79.5,0 0.5,12.5 0.5,12.5 12.2044,0.5 c 6.7124,0.275 12.6597,0.95731 13.2162,1.51624 0.5565,0.55894 1.1396,6.40894 1.2956,13 l 0.2838,11.98376 12.2312,0.28063 c 10.3901,0.23838 12.3603,0.53944 13.0888,2 0.4717,0.94565 0.5926,7.11937 0.2688,13.71937 l -0.5888,12 -39,0.5 -39,0.5 -0.5425,26 c -0.2984,14.3 -0.6359,26.12556 -0.75,26.27903 -0.1141,0.15346 -6.17,0.15346 -13.4575,0 l -13.25,-0.27903 -0.2811,-12.28656 c -0.3342,-14.60998 0.4601,-13.89714 -14.9395,-13.40711 l -10.2206,0.32523 -0.2794,12.68422 -0.2794,12.68422 -26,0.5 -26,0.5 -0.2704,12 c -0.2216,9.83439 -0.5719,12.22558 -1.9411,13.25 -1.1065,0.82782 -5.4903,1.25 -12.9796,1.25 l -11.3089,0 -0.1298,2.75 c -0.071,1.5125 -0.028,6.41091 0.096,10.88535 0.3419,12.28897 0.3877,12.24847 -14.2355,12.58407 l -12.2312,0.2806 -0.2678,24.919 c -0.1756,16.3356 -0.6484,25.3775 -1.3725,26.25 -0.8061,0.9713 -4.3147,1.331 -12.9821,1.331 l -11.8776,0 0,25.5172 0,25.5171 25.25,-0.2671 25.25,-0.2672 0.5,-39 0.5,-39 12.5,-0.5 12.5,-0.5 0.2834,-11.9378 c 0.1591,-6.7025 0.7609,-12.5132 1.3724,-13.25 0.7868,-0.948 4.3806,-1.3122 12.9476,-1.3122 13.9189,0 12.765,1.3163 13.1493,-15.00002 l 0.2473,-10.5 13.5,0 13.5,0 0.5,26.00002 0.5,26 11.1015,0.2813 c 8.4214,0.2135 11.3745,-0.047 12.2322,-1.0809 0.7573,-0.9125 1.2191,-9.5913 1.3985,-26.2814 l 0.2678,-24.91902 13.5,0 13.5,0 0.2573,65.38872 c 0.1868,47.4687 -0.052,65.7619 -0.8725,66.75 -1.5407,1.8566 -50.8386,2.0074 -52.6848,0.1613 -0.7968,-0.7968 -1.2,-5.1379 -1.2,-12.9206 l 0,-11.7205 -2.75,-0.5784 c -3.5354,-0.7435 -20.1113,-0.053 -21.0415,0.8773 -0.3897,0.3895 -0.7536,5.8685 -0.8088,12.1755 -0.055,6.307 -0.5125,11.8795 -1.0163,12.3833 -0.5037,0.5037 -6.3086,1.0436 -12.8996,1.1996 l -11.9838,0.2838 -0.5,12.5 -0.5,12.5 -12.2866,0.2811 c -12.1185,0.2772 -12.2997,0.3157 -13.25,2.8151 -0.5298,1.3937 -0.9634,7.2297 -0.9634,12.9689 l 0,10.4349 -13.393,0 c -11.2902,0 -13.4883,-0.2484 -14,-1.5818 -0.3339,-0.87 -0.607,-6.4864 -0.607,-12.481 0,-12.8628 0.8062,-12.1873 -14,-11.7304 l -9.5,0.2932 -0.2473,10.5 c -0.136,5.775 -0.4821,11.5125 -0.7691,12.75 l -0.5217,2.25 -27.01,0 -27.0099,0 0.279,-13.25 z m 210.6915,-68.1445 c 0.7619,-0.9181 1.06,-5.1033 0.8724,-12.25 l -0.2849,-10.8555 -12,0 -12,0 -0.2843,11.4197 c -0.2108,8.4635 0.048,11.6308 1,12.2347 2.3215,1.4731 21.4017,1.0116 22.6968,-0.5489 z M 1567,936.48462 c 0,-8.66746 0.3597,-12.17609 1.331,-12.98216 0.8725,-0.72412 9.9144,-1.19686 26.25,-1.37244 l 24.919,-0.26784 0.2808,-12.25 0.2808,-12.25 -25.3308,0 c -18.3684,0 -25.6606,-0.32983 -26.5308,-1.2 -0.8702,-0.87017 -1.2,-8.16261 -1.2,-26.53174 l 0,-25.33173 -11.75,0.28173 -11.75,0.28174 -0.5,12.17107 c -0.275,6.69409 -0.873,12.54409 -1.3289,13 -0.4559,0.45591 -6.3059,1.05393 -13,1.32893 l -12.1711,0.5 -0.2817,11.75 -0.2818,11.75 12.5565,0 12.5565,0 0.9753,2.5651 c 0.5363,1.4108 0.9752,13.3358 0.9752,26.5 l 0,23.9349 12,0 12,0 0,-11.87756 z m 106,-0.12244 0,-12 -11.8712,0 -11.8711,0 -0.6783,5.11293 c -0.373,2.81212 -0.3729,8.21212 4e-4,12 l 0.6786,6.88707 11.8708,0 11.8708,0 0,-12 z m -159.2192,-26.75 0.2808,-12.25 -12.0308,0 -12.0308,0 0,11.83333 c 0,6.50834 0.3139,12.14724 0.6976,12.53091 0.3836,0.38366 5.6711,0.57116 11.75,0.41666 l 11.0524,-0.2809 0.2808,-12.25 z m 211.9997,0.0301 0.2806,-12.21989 -12.7806,-0.28011 -12.7805,-0.2801 0,-13.5 0,-13.5 13.5,0 13.5,0 0.2801,12.78054 0.2801,12.78053 12.2199,-0.28053 12.2199,-0.28054 0.5,-12.5 0.5,-12.5 25.4519,-0.2676 c 18.8319,-0.19799 25.6554,-0.58813 26.2346,-1.5 1.0283,-1.61881 1.0151,-20.86662 -0.015,-22.48981 -0.6304,-0.99301 -14.3475,-1.20329 -65.2346,-1 l -64.4365,0.25741 -0.2624,37.49645 c -0.1444,20.62304 -0.043,38.06843 0.2253,38.76752 0.3803,0.99089 5.949,1.21211 25.2624,1.00355 l 24.7747,-0.26752 0.2805,-12.2199 z m -212.2805,-52.7801 0,-12 -11.75,-0.28174 -11.75,-0.28173 0,11.86507 c 0,6.52579 0.3139,12.17897 0.6976,12.56264 0.3836,0.38366 5.6711,0.57116 11.75,0.41666 l 11.0524,-0.2809 0,-12 z m 186.721,291.25002 0.279,-13.25 13.5,0 13.5,0 0.2909,11 c 0.4437,16.7797 1.6276,15.5 -14.339,15.5 l -13.5099,0 0.279,-13.25 z m 53,0 0.279,-13.25 13.5,0 13.5,0 0.2909,11 c 0.4437,16.7797 1.6276,15.5 -14.339,15.5 l -13.5099,0 0.279,-13.25 z m 106,0 0.279,-13.25 13.25,-0.279 13.25,-0.2791 0,13.5291 0,13.529 -13.529,0 -13.529,0 0.279,-13.25 z M 1208,1040.877 l -68.5,-68.5202 -0.5,-208.24731 -0.5,-208.24731 -69.2476,-0.5 -69.2476,-0.5 -67.06627,-67 c -36.88647,-36.85 -67.9682,-68.2375 -69.07052,-69.75 l -2.0042,-2.75 417.78869,0 417.7886,0 68.4297,68.38713 c 50.0666,50.03536 68.2637,68.81994 67.8109,70 -0.5674,1.47845 -23.666,1.61287 -277.1485,1.61287 l -276.5296,0 -0.2518,276.73631 c -0.223,245.06311 -0.4235,276.76851 -1.7518,277.01751 -0.8673,0.1626 -30.3937,-28.621 -70,-68.239 z m 598.6667,67.8185 C 1806.3,1108.3289 1806,1096.227 1806,1081.8025 c 0,-22.9925 0.195,-26.3012 1.5818,-26.8333 0.87,-0.3339 6.7065,-0.607 12.9701,-0.607 l 11.3884,0 0.2798,-12.75 0.2799,-12.75 12.4068,-0.5 c 7.536,-0.3037 12.926,-0.1074 13.7296,0.5 0.939,0.7098 1.4013,4.4819 1.5932,13 l 0.2704,12 10.5,0.2473 c 16.4344,0.3871 15,-1.0255 15,14.7717 l 0,13.481 -23.4349,0 c -12.8892,0 -24.5892,0.4388 -26,0.9752 -2.545,0.9677 -2.5651,1.0638 -2.5651,12.3 0,7.4748 -0.4079,11.7327 -1.2,12.5248 -1.2867,1.2867 -24.8981,1.7686 -26.1333,0.5333 z m 26.513,-106.6168 c -0.6395,-0.7705 -1.2335,-6.39719 -1.3963,-13.22605 l -0.2834,-11.88499 -10.0322,0.27098 c -5.5177,0.14904 -11.2552,-0.036 -12.75,-0.41115 l -2.7178,-0.68213 0,-13.2846 c 0,-11.19133 0.2492,-13.38025 1.5818,-13.89159 0.87,-0.33385 6.6649,-0.60699 12.8775,-0.60699 8.1026,0 11.6037,0.37097 12.3849,1.31227 0.6115,0.73678 1.2134,6.54746 1.3724,13.25 l 0.2834,11.93773 10.8555,0.2849 c 7.3323,0.19244 11.3228,-0.10291 12.2952,-0.91 1.1882,-0.98611 1.4147,-5.43675 1.2964,-25.47154 -0.079,-13.35215 0.1523,-24.75516 0.5137,-25.34 0.4095,-0.66251 5.5355,-1.06336 13.5982,-1.06336 l 12.941,0 0,26.98095 0,26.98095 -2.25,0.52174 c -1.2375,0.28695 -6.975,0.63303 -12.75,0.76905 l -10.5,0.24731 -0.5,12.5 -0.5,12.50002 -12.6037,0.2788 c -9.5904,0.2121 -12.8697,-0.042 -13.7166,-1.0623 z m -503.7322,-52.99282 c -0.2817,-0.73405 -0.3851,-6.93468 -0.2298,-13.77917 l 0.2823,-12.44453 13.5,0 13.5,0 0,13.5 0,13.5 -13.2702,0.27917 c -10.3413,0.21755 -13.3832,-0.0154 -13.7823,-1.05547 z m 529.9888,-106.02917 c -0.2755,-0.71801 -0.3739,-6.90551 -0.2186,-13.75 l 0.2823,-12.44453 13.25,-0.27903 13.25,-0.27902 0,13.42204 c 0,11.31665 -0.2481,13.51724 -1.5818,14.02902 -0.87,0.33385 -6.7341,0.60699 -13.0314,0.60699 -8.4966,0 -11.5788,-0.33669 -11.9505,-1.30547 z M 1329.6718,790.70066 C 1329.3023,790.33116 1329,748.52699 1329,697.8025 c 0,-83.17587 0.1552,-92.28591 1.5818,-92.83333 2.3843,-0.91493 182.7251,-0.69894 184.1734,0.22058 0.9953,0.63185 1.2024,19.94552 1,93.23468 l -0.2552,92.43775 -92.5782,0.25515 c -50.918,0.14033 -92.8805,-0.0472 -93.25,-0.41667 z m 157.8282,-92.83848 0,-65 -65,0 -65,0 -0.2591,64 c -0.1426,35.2 -0.043,64.56579 0.2214,65.2573 0.3805,0.99554 13.9673,1.20374 65.2591,1 l 64.7786,-0.2573 0,-65 z m -105.039,39.25911 c -0.2667,-0.69514 -0.3671,-18.81282 -0.223,-40.2615 l 0.262,-38.99761 40,0 40,0 0,40 0,40 -39.777,0.2615 c -31.3249,0.20593 -39.88,-0.007 -40.262,-1.00239 z m 317.9997,52.99089 c -0.2622,-0.6875 -0.3605,-42.65 -0.2187,-93.25 l 0.258,-92 90.5,-0.2749 c 49.775,-0.15119 91.5125,-0.0301 92.75,0.26906 l 2.25,0.54394 0,92.98095 0,92.98095 -92.5314,0 c -73.1043,0 -92.6314,-0.26244 -93.0079,-1.25 z m 158.0393,-92.25 0,-65 -65,0 -65,0 -0.2572,65.25724 -0.2573,65.25725 65.2573,-0.25725 65.2572,-0.25724 0,-65 z m -105.039,39.25911 c -0.2667,-0.69514 -0.3671,-18.81282 -0.223,-40.2615 l 0.262,-38.99761 39.7281,-0.26145 39.7281,-0.26146 0.5503,2.26146 c 0.3027,1.2438 0.4251,19.36145 0.272,40.26145 l -0.2785,38 -39.777,0.2615 c -31.3249,0.20593 -39.88,-0.007 -40.262,-1.00239 z m -106.0135,-53.03541 c -0.2817,-0.73405 -0.3851,-6.93468 -0.2298,-13.77917 l 0.2823,-12.44453 13.5,0 13.5,0 0,13.5 0,13.5 -13.2702,0.27917 c -10.3413,0.21755 -13.3832,-0.0154 -13.7823,-1.05547 z"
         id="path182"
         inkscape:connector-curvature="0" />
      <path
         style="fill:#56ace8"
         d="m 1330.2448,1069.1122 0.2552,-92.25002 92,0 92,0 0.2552,92.25002 0.2552,92.25 -92.5104,0 -92.5104,0 0.2552,-92.25 z m 158.2552,-0.25 0,-66 -66,0 -66,0 -0.2591,65 c -0.1425,35.75 -0.043,65.5657 0.2214,66.2572 0.3805,0.9956 14.1671,1.2037 66.2591,1 l 65.7786,-0.2572 0,-66 z m -105.0391,38.2586 c -0.267,-0.6957 -0.3674,-18.3635 -0.2232,-39.2618 l 0.2623,-37.9968 39,0 39,0 0,39 0,39 -38.7769,0.2618 c -30.5358,0.2061 -38.88,-0.01 -39.2622,-1.0032 z m 158.7592,41.4914 0.2799,-12.75 26,0 26,0 0.2799,12.75 0.2798,12.75 -26.5597,0 -26.5597,0 0.2798,-12.75 z M 1621,1148.4788 c 0,-15.21 1.2197,-14.082 -15.25,-14.103 l -10.75,-0.014 0,-13 0,-13 -13,0 c -7.15,0 -13.0934,-0.1125 -13.2075,-0.25 -0.1141,-0.1375 -0.4516,-11.95 -0.75,-26.25 l -0.5425,-26 -12.5,-0.5 -12.5,-0.5 0,-12.5 0,-12.5 24.919,-0.2679 c 15.9805,-0.1717 25.3857,-0.6551 26.22,-1.3475 0.9062,-0.7521 1.386,-4.7677 1.581,-13.2322 l 0.28,-12.1524 12.75,-0.2799 12.75,-0.2799 0,-12.85347 c 0,-11.43508 -0.1931,-12.89395 -1.75,-13.22012 -0.9625,-0.20165 -12.775,-0.14163 -26.25,0.13337 l -24.5,0.5 -0.5,12.5 -0.5,12.50002 -12.5,0 -12.5,0 -0.2666,-26.24119 -0.2666,-26.24117 -52.7334,-0.25883 -52.7334,-0.25883 -0.5,-26 -0.5,-26 -26,-0.5 -26,-0.5 -0.2798,-12.73837 -0.2798,-12.73836 39.2798,-0.26164 39.2798,-0.26163 0.5,-13 0.5,-13 13,0 13,0 0.5,13 0.5,13 12.7792,0.2801 12.7793,0.28009 -0.2793,-13.28009 -0.2792,-13.2801 -12.7796,-0.2801 -12.7797,-0.2801 0.2797,-12.7199 0.2796,-12.7199 24.919,-0.26784 c 16.3356,-0.17558 25.3775,-0.64832 26.25,-1.37244 1.0829,-0.89872 1.331,-13.17719 1.331,-65.87518 0,-58.13979 0.1619,-64.8327 1.5818,-65.37755 0.87,-0.33385 6.7274,-0.60699 13.0166,-0.60699 l 11.4348,0 -0.2666,-26.25 -0.2666,-26.25 -12.5,-0.5 -12.5,-0.5 0,-12.5 0,-12.5 51.5,-0.26158 c 47.5278,-0.2414 51.5964,-0.13024 52.75,1.44113 0.7855,1.07001 1.2449,5.06887 1.2364,10.76158 -0.023,15.0158 2.9628,13.48215 -26.8487,13.79221 l -25.6377,0.26666 0,13 0,13 12.5,0.5 12.5,0.5 0,12.5 0,12.5 -26.2588,0.26662 -26.2589,0.26662 0.2589,52.73338 0.2588,52.73338 13,0.5 13,0.5 0.2518,11.5 c 0.1386,6.325 -0.1812,12.175 -0.7105,13 -0.7382,1.15045 -3.8262,1.61652 -13.2519,2 l -12.2894,0.5 -0.2797,12.72034 -0.2796,12.72035 -12.7204,0.27965 -12.7203,0.27966 -0.2834,11.93773 c -0.159,6.70254 -0.7609,12.51322 -1.3724,13.25 -0.7915,0.95369 -4.4713,1.31227 -13.4666,1.31227 l -12.3776,0 0,12.97012 0,12.97013 -12.75,0.27987 -12.75,0.27988 0,13 0,13 12.5,0 12.5,0 0.5,-13 0.5,-13 11.9887,-0.2838 c 10.4036,-0.24628 12.1555,-0.0557 13.25,1.44113 0.9349,1.27857 1.2613,8.15239 1.2613,26.56368 l 0,24.83874 12.75,-0.27987 12.75,-0.27988 0.5,-12.5 0.5,-12.5 26,-0.54253 c 14.3,-0.2984 26.0991,-0.6359 26.2201,-0.75 0.1211,-0.11411 0.3461,-5.94497 0.5,-12.95747 l 0.2799,-12.75 12.461,-0.28247 c 8.4288,-0.19107 12.7115,-0.67646 13.2347,-1.5 0.4255,-0.66964 0.7806,-18.43003 0.789,-39.46753 l 0.015,-38.25 79,0 79,0 0,13 0,13 -64.8776,0 c -52.9568,0 -65.0815,0.24584 -65.9879,1.33796 -0.7609,0.91685 -1.1929,13.42765 -1.3725,39.75 l -0.262,38.41204 -12.75,0.27988 -12.75,0.27987 0,12.97013 0,12.97012 13,0 13,0 0,-13 0,-13 26.471,0 26.471,0 0.279,-13.25 0.279,-13.25 12.7384,-0.27979 c 14.9163,-0.32763 13.6306,1.06867 14.0143,-15.22021 l 0.2473,-10.5 25,-0.25862 c 22.0766,-0.22838 25.1462,-0.45537 26.25,-1.94113 0.8344,-1.12317 1.25,-5.60829 1.25,-13.49138 l 0,-11.80887 11.4182,0 c 6.28,0 12.13,0.27314 13,0.60699 1.3236,0.50792 1.5818,2.61226 1.5818,12.89301 0,10.28075 0.2582,12.38509 1.5818,12.89301 0.87,0.33385 6.6675,0.60699 12.8834,0.60699 9.9412,0 11.3507,0.21065 11.7098,1.75 0.2246,0.9625 0.1646,6.7 -0.1334,12.75 l -0.5416,11 -39,0.5 -39,0.5 -0.5,26 -0.5,26 -12.5,0 -12.5,0 -0.2473,-10.5 c -0.3863,-16.39879 0.9418,-15 -14.2419,-15 l -12.9511,0 -0.2798,12.75 -0.2799,12.75 -26.25,0.2666 -26.25,0.26661 0,12.44821 c 0,11.28373 -0.1809,12.54505 -1.9343,13.4834 -1.0638,0.56935 -6.9138,1.03518 -13,1.03518 l -11.0657,0 0,11.41821 c 0,6.28002 -0.2731,12.13002 -0.607,13.00001 -0.51,1.329 -2.6643,1.5818 -13.4834,1.5818 l -12.8764,0 -0.2666,26.25 -0.2666,26.25 -12.5,0.5 -12.5,0.5 -0.2666,26.25 -0.2666,26.25 25.9096,0 c 22.7037,0 25.9847,-0.1957 26.5166,-1.5818 0.3339,-0.87 0.607,-18.645 0.607,-39.5 l 0,-37.9182 11.4182,0 c 6.28,0 12.13,-0.2732 13,-0.607 1.3176,-0.5056 1.5818,-2.56 1.5818,-12.3 0,-7.7612 0.4035,-12.0965 1.2,-12.893 0.7965,-0.7965 5.1318,-1.2 12.893,-1.2 9.74,0 11.7944,-0.2642 12.3,-1.5818 0.3339,-0.86999 0.607,-6.73344 0.607,-13.02988 l 0,-11.44809 12.75,0.27987 12.75,0.27988 0.2678,24.91902 c 0.1756,16.3356 0.6484,25.3775 1.3725,26.25 1.3575,1.6357 20.9689,1.8781 23.9254,0.2958 1.8347,-0.9819 1.9343,-2.3475 1.9343,-26.5299 l 0,-25.49467 12.75,0.27987 12.75,0.27988 0,65.50002 0,65.5 -26,0 -26,0 -0.2799,-12.75 -0.2798,-12.75 11.5956,0 c 6.3776,0 12.466,-0.4658 13.5298,-1.0352 1.7374,-0.9298 1.9327,-2.1769 1.919,-12.25 -0.01,-6.1681 -0.3814,-11.7918 -0.8289,-12.497 -0.6069,-0.9564 -3.9695,-1.2104 -13.2347,-1 l -12.4211,0.2822 -0.2825,12.461 c -0.1902,8.3926 -0.68,12.7303 -1.5,13.2857 -0.6696,0.4535 -5.7175,0.7566 -11.2175,0.6737 -5.5,-0.083 -10.7875,-0.099 -11.75,-0.036 -1.562,0.1028 -1.75,1.3914 -1.75,11.9928 0,8.5826 -0.364,12.1796 -1.3123,12.9666 -0.7367,0.6115 -6.5474,1.2134 -13.25,1.3724 l -11.9377,0.2834 -0.5,12.5 -0.5,12.5 -12.5,0.6106 c -6.875,0.3359 -12.6125,0.6734 -12.75,0.75 -0.1375,0.077 -0.25,5.9894 -0.25,13.1394 l 0,13 -13.5,0 -13.5,0 0,-12.8834 z m 80,-0.1465 0,-13.0299 12.75,0.2799 12.75,0.2799 0.2799,12.75 0.2798,12.75 -13.0298,0 -13.0299,0 0,-13.0299 z m 53,0 0,-13.0299 12.75,0.2799 12.75,0.2799 0.2799,12.75 0.2798,12.75 -13.0298,0 -13.0299,0 0,-13.0299 z m 106,0.03 0,-13 13,0 13,0 0,13 0,13 -13,0 -13,0 0,-13 z M 1208.5073,1040.2657 1140,971.78376 l 0,-207.129 c 0,-113.92095 -0.2731,-207.84081 -0.607,-208.71079 -0.5454,-1.42128 -7.6218,-1.58179 -69.7349,-1.58179 l -69.128,0 -69.51506,-69.49795 -69.51504,-69.49794 417.5,-8e-4 417.5,-8e-4 68.25,68.30321 c 37.5375,37.56677 68.25,68.8404 68.25,69.49696 0,0.92152 -63.1122,1.25117 -276.75,1.44554 l -276.75,0.25178 -0.2518,275.95179 c -0.1648,180.61503 -0.5941,276.29413 -1.2427,276.94273 -0.6546,0.6546 -24.2436,-22.253 -69.4982,-67.491 z m 598.9552,66.8594 c -0.2741,-0.7145 -0.3779,-12.5409 -0.2305,-26.281 l 0.268,-24.9819 12.5,-0.5 12.5,-0.5 0.5,-12.5 0.5,-12.5 12.75,-0.2799 12.75,-0.2799 0,11.4481 c 0,6.2965 0.2731,12.1599 0.607,13.0299 0.51,1.3292 2.6657,1.5818 13.5,1.5818 l 12.893,0 0,13.4834 0,13.4834 -26.25,0.2666 -26.25,0.2666 -0.5,12.5 -0.5,12.5 -12.2695,0.2809 c -9.3456,0.214 -12.3883,-0.029 -12.768,-1.018 z m 26.2334,-105.4004 C 1833.3131,1001.342 1833,995.47885 1833,988.69551 l 0,-12.33333 13.0299,0 13.0298,0 -0.2798,12.75 -0.2799,12.75002 -12.0541,0.2792 c -6.6298,0.1535 -12.3673,-0.034 -12.75,-0.4167 z m -24.9752,-26.05749 c -1.6068,-0.41809 -1.7522,-1.69111 -1.5,-13.13399 l 0.2793,-12.67104 12.5,0 12.5,0 0.2789,12.61922 0.2789,12.61922 -3.1539,0.63078 c -3.5113,0.70227 -18.411,0.65712 -21.1832,-0.0642 z m 52.5293,0.0327 c -0.9549,-0.38531 -1.25,-6.6234 -1.25,-26.42106 l 0,-25.91667 13,0 13,0 0,26.5 0,26.5 -11.75,-0.0789 c -6.4625,-0.0434 -12.3125,-0.30592 -13,-0.58333 z m -530.804,-27.61794 c -0.2833,-0.73814 -0.387,-6.48956 -0.2305,-12.78093 l 0.2845,-11.43886 12.5,0 12.5,0 0,12.5 0,12.5 -12.2695,0.28094 c -9.5415,0.21847 -12.384,-0.0175 -12.7845,-1.06115 z m 0,-53 c -0.2833,-0.73814 -0.387,-6.48956 -0.2305,-12.78093 l 0.2845,-11.43886 12.7801,-0.2801 12.7801,-0.2801 -0.2801,12.7801 -0.2801,12.7801 -12.2695,0.28094 c -9.5415,0.21847 -12.384,-0.0175 -12.7845,-1.06115 z m 238.0046,0.0122 c -0.2676,-0.69742 -0.366,-12.50992 -0.2186,-26.25 l 0.268,-24.98199 11.9887,-0.2838 c 10.4036,-0.24628 12.1555,-0.0557 13.25,1.44113 0.8387,1.14703 1.2613,5.50734 1.2613,13.01475 0,13.26076 -1.2678,12.19745 15,12.58061 l 10.5,0.24731 0.2799,12.75 0.2798,12.75 -26.0612,0 c -20.1242,0 -26.1721,-0.28887 -26.5479,-1.26804 z m 133.2161,0.60137 C 1701.3,895.32885 1701,889.4654 1701,882.66564 l 0,-12.36321 12.75,0.27987 12.75,0.27988 0.2799,12.75 0.2798,12.75 -12.3632,0 c -6.7997,0 -12.6632,-0.3 -13.0298,-0.66667 z m -345.1674,-28.55386 c -0.3314,-1.80373 -0.4668,-7.7795 -0.3009,-13.2795 l 0.3016,-10 12.103,-0.2796 c 9.4993,-0.21945 12.3568,0.0262 13.2827,1.14183 0.7981,0.96171 1.0882,5.25657 0.897,13.2796 l -0.2827,11.85817 -12.6991,0.2795 -12.6992,0.27949 -0.6024,-3.27949 z m -26.0652,-25.09064 c -0.2767,-0.72113 -0.3751,-6.45863 -0.2186,-12.75 l 0.2845,-11.43886 12.5,0 12.5,0 0.2799,12.75 0.2798,12.75 -12.5612,0 c -9.4389,0 -12.6863,-0.32591 -13.0644,-1.31114 z m 106,0 c -0.2767,-0.72113 -0.3751,-6.45863 -0.2186,-12.75 l 0.2845,-11.43886 12.5,0 12.5,0 0.2799,12.75 0.2798,12.75 -12.5612,0 c -9.4389,0 -12.6863,-0.32591 -13.0644,-1.31114 z m 424.2326,0.64447 c -0.3667,-0.36666 -0.6667,-6.21666 -0.6667,-13 l 0,-12.33333 13,0 13,0 0,13 0,13 -12.3333,0 c -6.7834,0 -12.6334,-0.3 -13,-0.66667 z m -530.2041,-53.57809 c -0.2632,-0.69038 -0.3625,-42.20524 -0.2206,-92.25524 l 0.258,-91 92,0 92,0 0,92 0,92 -91.7794,0.25524 c -72.8949,0.20272 -91.8778,-0.003 -92.258,-1 z m 158.0374,-91.25524 0,-66 -66,0 -66,0 -0.2591,65 c -0.1425,35.75 -0.043,65.56574 0.2214,66.2572 0.3805,0.99561 14.1671,1.20368 66.2591,1 l 65.7786,-0.2572 0,-66 z m -105.0391,38.25861 c -0.267,-0.69571 -0.3674,-18.3635 -0.2232,-39.26177 l 0.2623,-37.99684 39,0 39,0 0,39 0,39 -38.7769,0.26177 c -30.5358,0.20613 -38.88,-0.007 -39.2622,-1.00316 z M 1595,764.49905 c 0,-22.7158 0.1957,-25.99799 1.5818,-26.52988 0.87,-0.33385 6.7065,-0.60699 12.9701,-0.60699 l 11.3884,0 0.2798,-12.75 0.2799,-12.75 26,0 26,0 0,39 0,39 -12.75,0.27988 -12.75,0.27987 0,-25.32987 c 0,-18.36769 -0.3298,-25.65971 -1.2,-26.52988 -0.8031,-0.80308 -5.263,-1.2 -13.4834,-1.2 l -12.2834,0 -0.2666,26.25 -0.2666,26.25 -12.75,0.27988 -12.75,0.27987 0,-25.92288 z m 106.4606,24.61313 c -0.2621,-0.6875 -0.3605,-42.2 -0.2186,-92.25 l 0.258,-91 92.25,-0.25521 92.25,-0.2552 0,92.5052 0,92.50521 -92.0314,0 c -72.7042,0 -92.1315,-0.26251 -92.508,-1.25 z m 158.3154,-89.25 c 0.1518,-35.2 0.03,-65.01573 -0.2709,-66.25718 l -0.5468,-2.25719 -65.7291,0.25719 -65.7292,0.25718 -0.2591,65 c -0.1425,35.75 -0.043,65.56574 0.2214,66.2572 0.3805,0.99561 14.1671,1.20368 66.2591,1 l 65.7786,-0.2572 0.276,-64 z m -105.3151,36.25861 c -0.267,-0.69571 -0.3674,-18.3635 -0.2232,-39.26177 l 0.2623,-37.99684 39,0 39,0 0,39 0,39 -38.7769,0.26177 c -30.5358,0.20613 -38.88,-0.007 -39.2622,-1.00316 z m -106.241,-64.47851 0.2801,-12.7801 12.5,0 12.5,0 0,12.5 0,12.5 -12.7801,0.2801 -12.7801,0.2801 0.2801,-12.7801 z"
         id="path180"
         inkscape:connector-curvature="0" />
      <path
         style="fill:#038afa"
         d="m 1330.7533,1070.6123 c 0.1393,-49.9126 0.4626,-91.31262 0.7186,-92.00012 0.3676,-0.98737 19.4927,-1.25 91.0281,-1.25 71.5354,0 90.6605,0.26263 91.0281,1.25 0.256,0.6875 0.5793,42.08752 0.7186,92.00012 l 0.2533,90.7501 -92,0 -92,0 0.2533,-90.7501 z m 158.7467,-1.7501 0,-67 -66.4428,-0.2572 c -36.5435,-0.1415 -66.8185,0.1185 -67.2776,0.5776 -0.9068,0.9068 -1.1061,131.8423 -0.2029,133.3036 0.3151,0.5099 29.0342,0.7803 67.2367,0.6331 l 66.6866,-0.2571 0,-67 z m -102.5,37.6052 -2.5,-0.6954 0,-37.4549 0,-37.4549 38,0 38,0 0.2641,37 c 0.2419,33.8964 0.121,37.1048 -1.4412,38.25 -1.2918,0.947 -9.9616,1.2258 -35.764,1.1503 -18.7324,-0.055 -35.1839,-0.4126 -36.5589,-0.7951 z m 155.7957,43.646 c 0.1626,-6.1882 0.4859,-11.8137 0.7186,-12.5012 0.323,-0.9546 6.2215,-1.25 24.9543,-1.25 l 24.5314,0 0,10.9182 c 0,6.005 0.2731,11.63 0.607,12.5 0.5438,1.4172 -2.083,1.5819 -25.25,1.583 l -25.857,10e-4 0.2957,-11.2512 z m 79.4048,-1.6645 c 0.1647,-7.1023 -0.073,-13.2898 -0.5294,-13.75 -0.4559,-0.4602 -6.3059,-1.0617 -13,-1.3367 l -12.1711,-0.5 -0.2827,-11.25 c -0.1556,-6.1875 -0.1556,-11.3434 0,-11.4575 0.1555,-0.1141 11.9827,-0.4516 26.2827,-0.75 l 26,-0.5425 0.5,-39 0.5,-39 11.9838,-0.2838 c 6.591,-0.156 12.391,-0.691 12.8889,-1.1889 0.4978,-0.4978 0.9551,-6.0699 1.0162,-12.3825 0.061,-6.3125 0.4875,-11.8525 0.9474,-12.3111 0.46,-0.4585 5.9612,-0.8449 12.2249,-0.8586 6.2637,-0.014 11.8346,-0.4709 12.3799,-1.0162 0.5453,-0.5453 1.1191,-6.3841 1.2751,-12.97516 l 0.2838,-11.98376 11.5,0 11.5,0 0.2676,25.45182 c 0.198,18.832 0.5881,25.6555 1.5,26.2347 2.2336,1.4189 25.3586,0.9688 26.5921,-0.5175 0.7241,-0.8725 1.1969,-9.9144 1.3725,-26.25 l 0.2678,-24.91902 11.2228,-0.2825 c 10.9625,-0.27594 11.2358,-0.22956 11.7838,2 0.8924,3.6307 0.084,125.52602 -0.8386,126.44962 -0.4575,0.4581 -11.4825,0.8329 -24.5,0.8329 l -23.668,0 -0.2817,-11.75 -0.2818,-11.75 11.8318,0 c 7.8691,0 12.2336,-0.4019 13.0317,-1.2 1.3797,-1.3797 1.69,-24.4796 0.357,-26.5802 -0.6093,-0.9602 -4.1679,-1.2102 -14.2347,-1 l -13.4223,0.2802 -0.5,12.5 -0.5,12.5 -12,0.5 c -6.6,0.275 -12.5625,0.864 -13.25,1.309 -0.885,0.5728 -1.25,4.2954 -1.25,12.75 0,6.5675 -0.1125,12.0037 -0.25,12.0803 -0.1375,0.077 -5.875,0.4142 -12.75,0.75 l -12.5,0.6107 -0.5,12.5 -0.5,12.5 -12.2312,0.2806 c -15.0654,0.3457 -14.5613,-0.2374 -14.1006,16.3078 l 0.3318,11.9143 -12.2995,-10e-4 -12.2995,-10e-4 0.2995,-12.9133 z m 79.5952,1.6645 c 0.1626,-6.1882 0.4859,-11.8137 0.7186,-12.5012 0.3042,-0.8992 3.5277,-1.25 11.4857,-1.25 7.958,0 11.1815,0.3508 11.4857,1.25 0.2327,0.6875 0.556,6.313 0.7187,12.5012 l 0.2956,11.2512 -12.5,0 -12.5,0 0.2957,-11.2512 z m 52.5973,9.667 c 0.3339,-0.87 0.607,-6.495 0.607,-12.5 l 0,-10.9182 11.5314,0 c 8.3328,0 11.6487,0.3467 11.9543,1.25 0.2327,0.6875 0.556,6.313 0.7187,12.5012 l 0.2956,11.2512 -12.857,0 c -11.3127,0 -12.7841,-0.1912 -12.25,-1.583 z m 106.4351,-10.1669 c 0.1805,-6.4632 0.6305,-12.0537 1,-12.4232 0.3696,-0.3695 5.96,-0.8195 12.4232,-1 l 11.7513,-0.3281 0,12.75 0,12.75 -12.75,10e-4 -12.75,10e-4 0.3281,-11.7513 z m -290.1614,-42.918 C 1570.3,1106.3289 1570,1095.1649 1570,1081.8866 c 0,-17.756 -0.3306,-24.5841 -1.25,-25.8129 -1.0244,-1.3692 -3.4156,-1.7195 -13.25,-1.9411 l -12,-0.2704 0,-11.5 0,-11.5 24.919,-0.2679 c 16.3356,-0.1755 25.3775,-0.6483 26.25,-1.3724 0.9648,-0.8007 1.331,-4.225 1.331,-12.447 0,-10.1904 0.1965,-11.4475 1.9343,-12.3775 2.7688,-1.4819 18.2965,-1.3181 20.3933,0.215 1.5443,1.1293 1.6838,3.5729 1.4411,25.25 l -0.2687,23.9998 -11.9377,0.2833 c -6.7026,0.1591 -12.5132,0.761 -13.25,1.3725 -1.0183,0.8451 -1.3123,6.6301 -1.3123,25.8242 l 0,24.7351 -6.1467,0.6424 c -7.9543,0.8314 -15.3421,0.8204 -16.1866,-0.024 z m 238.0193,0.019 c -0.3773,-0.3773 -0.686,-11.6274 -0.686,-25.0002 l 0,-24.3143 2.25,-0.5218 c 1.2375,-0.2869 6.975,-0.633 12.75,-0.769 l 10.5,-0.2473 0.2409,-3.5 c 0.1325,-1.925 0.5131,-7.6769 0.8457,-12.7819 l 0.6048,-9.2818 11.1543,0.2818 11.1543,0.2819 0.2473,10.5 c 0.3915,16.6216 -1.0163,15.2105 14.7924,14.8268 l 13.4631,-0.3268 -5e-4,12.5 -6e-4,12.5 -25.7508,-0.2613 c -14.5053,-0.1473 -26.368,0.1409 -27.1639,0.6597 -1.0985,0.7161 -1.3653,3.3622 -1.1987,11.8886 0.1672,8.5516 -0.1107,11.2925 -1.2615,12.4434 -1.0761,1.0761 -4.1551,1.5209 -11.3654,1.6421 -5.4392,0.091 -10.1981,-0.1426 -10.5754,-0.5199 z M 1208.7472,1038.6094 1141,970.85671 l 0,-207.54727 c 0,-160.09231 -0.2744,-207.82164 -1.2,-208.74726 -0.9099,-0.90991 -17.7716,-1.20106 -69.75,-1.20438 l -68.55,-0.004 -69.02687,-68.99323 -69.02687,-68.99324 416.02684,0.15003 416.0269,0.15002 67.5,68.03007 67.5,68.03006 -4.5,0.74341 c -2.475,0.40887 -126.7875,0.77676 -276.25,0.81753 l -271.75,0.0741 0,276.5 c 0,152.075 -0.3387,276.50005 -0.7528,276.50005 -0.414,0 -31.239,-30.4887 -68.5,-67.7528 z m 336.5028,-37.9362 -2.25,-0.4501 0,-23.89529 c 0,-28.33953 -1.194,-26.2173 14.5475,-25.85581 5.74,0.13182 10.7775,-0.10018 11.1944,-0.51554 0.417,-0.41537 0.9073,-6.34401 1.0897,-13.17475 l 0.3315,-12.41953 25.3833,0 c 24.0722,0 25.4367,-0.0999 26.4184,-1.93426 0.5694,-1.06384 1.0352,-6.91384 1.0352,-13 l 0,-11.06574 11.0657,0 c 6.0862,0 11.9362,-0.46583 13,-1.03518 1.8616,-0.99627 1.9343,-2.50016 1.9343,-40.00614 l 0,-38.97094 77.75,0.25613 77.75,0.25613 0.2817,11.7428 0.2817,11.7428 -65.7817,0.2572 -65.7817,0.2572 -0.5,39 -0.5,39 -12.2879,0.5 c -9.4344,0.38389 -12.5077,0.84833 -13.2347,2 -1.2074,1.91298 -1.2447,24.02925 -0.044,25.92706 0.6912,1.09222 3.6133,1.44859 12.4535,1.51881 6.7309,0.0535 11.996,0.53738 12.6184,1.15973 0.6599,0.65995 0.9584,5.04635 0.7812,11.48119 l -0.2868,10.41321 -12.1711,0.5 c -6.6941,0.275 -12.5441,0.87399 -13,1.33108 -0.4559,0.45709 -1.0539,6.30709 -1.3289,13 l -0.5,12.16894 -11,0 -11,0 -0.5803,-12.33615 c -0.4269,-9.07445 -0.9557,-12.57371 -2,-13.23469 -0.7808,-0.4942 -12.7271,-0.90545 -26.5473,-0.91387 -19.5328,-0.0119 -25.37,0.27687 -26.2166,1.29696 -0.6115,0.73678 -1.2133,6.54746 -1.3724,13.25 l -0.2834,11.93775 -9.5,0.1305 c -5.225,0.072 -10.5125,-0.072 -11.75,-0.3195 z m 290.9972,-0.1371 c -0.8521,-0.54098 -1.3318,-4.29432 -1.5,-11.73466 l -0.2472,-10.93926 11.75,-0.28174 11.75,-0.28173 0,11.42475 c 0,9.49538 -0.2671,11.52724 -1.5818,12.03174 -2.3181,0.8895 -18.7052,0.7116 -20.171,-0.2191 z m 36.5028,-25.92069 -11.75,-0.3167 0,-24.49965 c 0,-18.70747 0.2955,-24.59965 1.25,-24.92261 0.6875,-0.23263 6.3131,-0.55601 12.5012,-0.71862 l 11.2513,-0.29565 0,25.75 c -6e-4,14.1625 -0.3387,25.65324 -0.7512,25.53497 -0.4125,-0.11827 -6.0375,-0.35755 -12.5,-0.53174 z m -64.0524,-0.88899 C 1808.3139,973.34275 1808,968.1896 1808,962.27497 l 0,-10.75388 2.75,-0.53753 c 3.3676,-0.65824 18.5488,-0.1728 19.8557,0.63492 0.5202,0.32151 0.9342,5.45786 0.9201,11.41413 l -0.026,10.82957 -11.0524,0.2809 c -6.0789,0.1545 -11.3664,-0.033 -11.75,-0.41666 z M 1331.4443,947.0775 c -0.2851,-0.74279 -0.3891,-6.04511 -0.2313,-11.78292 l 0.287,-10.4324 11.5,0 11.5,0 0,11.5 0,11.5 -11.2687,0.28293 c -8.7401,0.21944 -11.3851,-0.0201 -11.787,-1.06761 z m 106.0323,0.0439 c -0.2572,-0.69259 -0.5822,-12.50922 -0.7221,-26.25922 l -0.2545,-25 -26,-0.5 -26,-0.5 -0.2932,-9.5 c -0.1612,-5.225 -0.04,-10.5125 0.2691,-11.75 l 0.5622,-2.25 38.4458,0 c 36.9867,0 38.485,-0.0734 39.4809,-1.93426 0.5694,-1.06384 1.0352,-6.86136 1.0352,-12.88337 0,-12.69824 -0.5139,-12.15506 11.5,-12.15506 12.088,0 11.5,-0.66304 11.5,12.96688 0,8.48642 0.3654,12.06415 1.3123,12.85001 0.7368,0.61147 6.5474,1.21335 13.25,1.37244 l 11.9377,0.28336 0.2856,10.91901 c 0.2108,8.06245 -0.051,11.13241 -1,11.73469 -0.7071,0.44862 -6.2581,0.82257 -12.3356,0.83099 -7.2422,0.01 -11.4635,0.42882 -12.25,1.21531 -0.8011,0.8011 -1.2,5.22222 -1.2,13.3 0,8.07778 0.3989,12.4989 1.2,13.3 0.8063,0.80635 5.3333,1.2 13.8,1.2 8.4667,0 12.9936,-0.39365 13.8,-1.2 0.7977,-0.79774 1.2,-5.15556 1.2,-13 l 0,-11.8 11.5175,0 11.5174,0 -0.2674,24.75 -0.2675,24.75 -50.7779,0.25918 c -40.095,0.20465 -50.8762,-0.006 -51.2455,-1 z m 238.1901,0.57415 c -0.9491,-0.94906 -0.7991,-20.57649 0.1689,-22.10152 0.622,-0.97994 6.3574,-1.20723 25.2347,-1 l 24.4297,0.26815 0.2932,9.5 c 0.1612,5.225 0.04,10.5125 -0.2691,11.75 l -0.5622,2.25 -24.3143,0 c -13.3728,0 -24.6143,-0.3 -24.9809,-0.66667 z m 80.5648,-0.50185 c -0.8296,-0.82959 -1.2315,-4.90815 -1.2315,-12.49634 0,-10.11373 -0.1976,-11.37059 -1.9343,-12.3 -1.0638,-0.56935 -6.9138,-1.03518 -13,-1.03518 l -11.0657,0 0,-10.5 c 0,-5.775 -0.1125,-10.8375 -0.25,-11.25 -0.1375,-0.4125 5.241,-0.975 11.9522,-1.25 6.7112,-0.275 12.6585,-0.95731 13.2162,-1.51624 0.5578,-0.55894 1.1418,-6.40894 1.2978,-13 l 0.2838,-11.98376 24.919,-0.26784 c 16.3356,-0.17558 25.3775,-0.64832 26.25,-1.37244 0.9713,-0.80607 1.331,-4.3147 1.331,-12.98216 l 0,-11.87756 3.75,-0.19173 c 7.8533,-0.40153 18.7813,0.47092 19.5178,1.55822 0.4223,0.62343 0.6661,5.9673 0.5418,11.87526 -0.1257,5.97076 0.2067,11.17458 0.7484,11.71625 0.536,0.53596 6.3672,1.10218 12.9582,1.25824 l 11.9838,0.28376 0,11.5 0,11.5 -38.7859,0.26178 c -31.7083,0.214 -38.8817,0.51137 -39.3108,1.62957 -0.2887,0.75229 -0.61,12.55949 -0.7141,26.23822 l -0.1892,24.87043 -10.5185,0.28148 c -7.3287,0.19613 -10.892,-0.092 -11.75,-0.95 z m -424.7872,-53.1162 c -0.2851,-0.74279 -0.3891,-6.04511 -0.2313,-11.78292 l 0.287,-10.4324 11.5,0 11.5,0 0,11.5 0,11.5 -11.2687,0.28293 c -8.7401,0.21944 -11.3851,-0.0201 -11.787,-1.06761 z m 239.2397,0.63537 C 1570.3078,894.33666 1570,883.07885 1570,869.69551 l 0,-24.33333 11.5,0 11.5,0 0,11.06574 c 0,6.08616 0.4658,11.93616 1.0352,13 0.9282,1.7343 2.1945,1.93584 12.25,1.94957 6.1681,0.008 11.7933,0.38237 12.5004,0.83099 0.9492,0.60228 1.2108,3.67224 1,11.73469 l -0.2856,10.91901 -24.066,0.26736 c -13.2363,0.14705 -24.3738,-0.0405 -24.75,-0.41667 z m 132.5305,-0.17883 c -0.9485,-0.61516 -1.2107,-3.6973 -1,-11.75285 l 0.2855,-10.91901 11.2228,-0.2825 c 13.2565,-0.33369 12.5316,-1.16147 12.0704,13.7825 l -0.2932,9.5 -10.5,0.25284 c -5.775,0.13907 -11.0785,-0.12238 -11.7855,-0.58098 z M 1358,856.92957 c 0,-13.6135 -0.5288,-13.14477 13.6313,-12.08314 l 9.3687,0.7024 0,11.40667 0,11.40668 -11.5,0 -11.5,0 0,-11.43261 z m 159,-0.44495 c 0,-8.58267 -0.364,-12.17967 -1.3123,-12.96664 -0.7367,-0.61147 -6.5474,-1.21335 -13.25,-1.37244 l -11.9377,-0.28336 0,-11.5 0,-11.5 26,-0.5 26,-0.5 0.5,-65.5 0.5,-65.5 11.5,0 11.5,0 0.2592,51.40858 c 0.1811,35.93644 0.5942,51.8123 1.3724,52.75 0.8168,0.98411 4.277,1.34142 12.9908,1.34142 l 11.8776,0 0,11.5 0,11.5 -11.8776,0 c -8.5826,0 -12.1796,0.36403 -12.9666,1.31227 -0.6115,0.73678 -1.2133,6.54746 -1.3724,13.25 l -0.2834,11.93773 -12,0.2704 c -9.8344,0.2216 -12.2256,0.57191 -13.25,1.94113 -0.8278,1.10645 -1.25,5.49023 -1.25,12.9796 l 0,11.30887 -11.5,0 -11.5,0 0,-11.87756 z m 356,-14.07191 -11.5,-0.55053 -0.2829,-11.26875 c -0.2129,-8.47905 0.035,-11.37659 1,-11.70435 0.7056,-0.23958 6.346,-0.56864 12.5341,-0.73125 l 11.2513,-0.29565 0,12.75 c -6e-4,7.0125 -0.3387,12.66024 -0.7512,12.55053 -0.4125,-0.1097 -5.925,-0.4472 -12.25,-0.75 z m -541.5557,-1.33521 c -0.2851,-0.74279 -0.3891,-6.04511 -0.2313,-11.78292 l 0.287,-10.4324 11.5,0 11.5,0 0,11.5 0,11.5 -11.2687,0.28293 c -8.7401,0.21944 -11.3851,-0.0201 -11.787,-1.06761 z m 106,0 c -0.2851,-0.74279 -0.3891,-6.04511 -0.2313,-11.78292 l 0.287,-10.4324 11.5,0 11.5,0 0,11.5 0,11.5 -11.2687,0.28293 c -8.7401,0.21944 -11.3851,-0.0201 -11.787,-1.06761 z m 356.0557,-51.70738 -91,-0.50794 -0.2553,-90.77935 c -0.2028,-72.09962 0,-90.87553 1,-91.24674 0.6904,-0.25706 42.0929,-0.58135 92.0054,-0.72064 l 90.7501,-0.25327 -10e-5,92.25 c 0,50.7375 -0.3376,92.14107 -0.7501,92.00794 -0.4125,-0.13314 -41.7,-0.47064 -91.75,-0.75 z m 66.2571,-24.4945 c 0.9959,-0.36134 1.2037,-14.33252 1,-67.23478 l -0.2571,-66.77866 -67,0 -67,0 -0.2571,66.7796 c -0.2516,65.35644 -0.2156,66.79495 1.6877,67.5 2.0671,0.76568 129.6928,0.508 131.8265,-0.26616 z m -104.2964,-29.75535 c -0.2672,-0.6963 -0.3677,-17.91422 -0.2233,-38.26205 l 0.2626,-36.99604 38,0 38,0 0,38 0,38 -37.7768,0.26205 c -29.7465,0.20635 -37.88,-0.007 -38.2625,-1.00396 z m -423.3436,52.88298 c -0.8229,-0.9915 -1.0588,-25.66427 -0.8725,-91.25 l 0.2554,-89.89107 89,-0.27494 c 48.95,-0.15122 90.0125,-0.0302 91.25,0.26905 l 2.25,0.54399 0,89.78095 c 0,68.49629 -0.2845,90.06544 -1.2,90.98095 -1.88,1.88001 -179.1201,1.72411 -180.6829,-0.15893 z M 1490,699.36218 c 0.275,-36.025 0.145,-66.29068 -0.289,-67.25708 -0.7428,-1.65441 -4.6866,-1.74205 -67.5,-1.5 l -66.711,0.25708 -0.259,66 c -0.1425,36.3 -0.043,66.56569 0.2213,67.2571 0.3805,0.99568 14.3669,1.20363 67.259,1 l 66.7787,-0.2571 0.5,-65.5 z m -105.3215,36.34518 C 1384.3053,735.33418 1384,718.44271 1384,698.17076 l 0,-36.85808 2.5651,-0.97525 c 2.8151,-1.07029 66.1648,-1.37928 71.3218,-0.34787 l 3.1369,0.62738 -0.2619,37.62262 -0.2619,37.62262 -37.5715,0.26185 c -20.6643,0.14402 -37.8768,-0.0435 -38.25,-0.41667 z m 211.7711,52.38413 c -0.2682,-0.69888 -0.3665,-11.83638 -0.2186,-24.75 l 0.269,-23.47931 11.5,0 11.5,0 0.2687,23.37496 c 0.1886,16.40277 -0.072,23.7851 -0.8724,24.75 -1.5645,1.88512 -21.7274,1.97885 -22.4467,0.10435 z m 53.2171,0.60402 c -0.3667,-0.36666 -0.6736,-11.72916 -0.682,-25.25 -0.01,-13.52083 -0.3632,-25.13072 -0.7883,-25.79976 -0.5188,-0.81643 -4.7063,-1.30968 -12.7347,-1.5 l -11.9617,-0.28357 -0.5631,-6 c -0.3097,-3.3 -0.3097,-8.475 0,-11.5 l 0.5631,-5.5 24.5,0 24.5,0 0.2625,36.88253 c 0.1877,26.39067 -0.06,37.27152 -0.8725,38.25 -0.8243,0.99325 -3.9292,1.36747 -11.3458,1.36747 -5.616,0 -10.5109,-0.3 -10.8775,-0.66667 z m -79.7716,-108.08333 c -0.058,-1.5125 -0.041,-11.975 0.036,-23.25 0.078,-11.275 -0.2438,-21.85 -0.7144,-23.5 l -0.8557,-3 -12.4306,-0.5 -12.4306,-0.5 0,-11.5 0,-11.5 51,0 51,0 0,11.5 0,11.5 -24.9191,0.26784 c -16.3355,0.17558 -25.3774,0.64832 -26.25,1.37244 -1.785,1.48145 -1.9,24.89066 -0.1309,26.65972 0.7789,0.77898 4.8368,1.2 11.5657,1.2 14.3664,0 14.2343,-0.10984 14.2343,11.83518 0,6.26153 -0.4305,10.19534 -1.2,10.96482 -0.8661,0.86611 -7.8222,1.2 -25,1.2 l -23.8,0 -0.1049,-2.75 z m 79.5492,1.46532 c -0.2851,-0.74279 -0.3891,-6.04511 -0.2313,-11.78292 l 0.287,-10.4324 11.5,0 11.5,0 0,11.5 0,11.5 -11.2687,0.28293 c -8.7401,0.21944 -11.3851,-0.0201 -11.787,-1.06761 z"
         id="path178"
         inkscape:connector-curvature="0" />
      <path
         style="fill:#00559b"
         d="M 1208.7472,1038.6094 1141,970.85671 l 0,-207.54727 c 0,-160.09231 -0.2744,-207.82164 -1.2,-208.74726 -0.9099,-0.90991 -17.7716,-1.20106 -69.75,-1.20438 l -68.55,-0.004 -69.02925,-68.99561 -69.02925,-68.99562 137.9394,0 137.9394,0 69.3399,69.24622 69.3398,69.24621 0,276.25378 c 0,151.93959 -0.3387,276.25382 -0.7528,276.25382 -0.414,0 -31.239,-30.4887 -68.5,-67.7528 z"
         id="path176"
         inkscape:connector-curvature="0" />
    </g>
  </g>
</svg>
